<svg width="40" height="40" viewBox="0 0 40 40" fill="none" xmlns="http://www.w3.org/2000/svg">
<g clip-path="url(#clip0_7535_492)">
<path d="M20 0.0626221C8.94659 0.0626221 0 9.00772 0 20.0626C0.968157 46.5651 39.0351 46.5596 40 20.0624C40 9.00929 31.0549 0.0626221 20 0.0626221ZM27.5212 28.4131L25.1456 25.1435L27.1493 18.9767L30.993 17.7278L37.5047 22.3094C37.22 24.5402 36.5165 26.6419 35.4769 28.5338L27.5212 28.4131ZM12.4788 28.4131L4.52322 28.5339C3.48353 26.6419 2.78 24.5403 2.49537 22.3094L9.00706 17.7279L12.8507 18.9767L14.8544 25.1436L12.4788 28.4131ZM2.3618 19.5264C2.46604 16.0524 3.57906 12.8278 5.41741 10.1357L7.41247 15.9727L2.3618 19.5264ZM17.0133 24.1736L15.1673 18.4924L20 14.9813L24.8327 18.4924L22.9867 24.1736H17.0133ZM32.5875 15.9727L34.5825 10.1357C36.4209 12.8278 37.5339 16.0524 37.6382 19.5264L32.5875 15.9727ZM32.8372 7.96702L30.2659 15.49L26.4222 16.7389L21.1765 12.9276V8.88623L27.5431 4.11133C29.5423 5.0605 31.3358 6.37447 32.8372 7.96702ZM24.942 3.1209L20 6.82733L15.058 3.1209C18.2766 2.18043 21.7215 2.17988 24.942 3.1209ZM12.4569 4.11133L18.8235 8.88615V12.9276L13.5777 16.7389L9.73412 15.49L7.16282 7.96702C8.66424 6.37447 10.4577 5.0605 12.4569 4.11133ZM6.05467 30.8639L12.2205 30.7702L14.0398 36.6729C10.8555 35.5267 8.09318 33.4898 6.05467 30.8639ZM16.7273 37.4042L14.3824 29.7961L16.7579 26.5265H23.242L25.6176 29.7961L23.2726 37.4042C21.1096 37.8116 18.8908 37.8116 16.7273 37.4042ZM25.9602 36.6729L27.7795 30.7702L33.9453 30.8639C31.9067 33.4898 29.1446 35.5267 25.9602 36.6729Z" fill="#008481"/>
</g>
<defs>
<clipPath id="clip0_7535_492">
<rect width="40" height="40" fill="white"/>
</clipPath>
</defs>
</svg>
